<?xml version="1.0" standalone="no"?>
<!DOCTYPE svg PUBLIC "-//W3C//DTD SVG 20010904//EN"
 "http://www.w3.org/TR/2001/REC-SVG-20010904/DTD/svg10.dtd">
<svg version="1.0" xmlns="http://www.w3.org/2000/svg"
 width="700.000000pt" height="700.000000pt" viewBox="0 0 700.000000 700.000000"
 preserveAspectRatio="xMidYMid meet">
<metadata>
Created by potrace 1.11, written by Peter Selinger 2001-2013
</metadata>
<g transform="translate(0.000000,700.000000) scale(0.100000,-0.100000)"
fill="#000000" stroke="none">
<path d="M3520 6974 c0 -8 -9 -36 -19 -62 -11 -26 -56 -148 -101 -272 -45
-124 -86 -234 -91 -245 -5 -11 -56 -150 -114 -310 -58 -159 -110 -299 -115
-310 -8 -18 -236 -636 -330 -895 -21 -58 -73 -197 -115 -310 -42 -113 -77
-209 -79 -215 -2 -5 -8 -22 -14 -36 -6 -15 -24 -64 -40 -110 -38 -105 -165
-450 -185 -504 -9 -22 -70 -188 -137 -370 -67 -181 -144 -391 -172 -465 -28
-74 -72 -193 -98 -265 -180 -492 -272 -743 -280 -760 -4 -11 -27 -72 -50 -135
-23 -63 -57 -154 -75 -202 -18 -49 -31 -88 -28 -88 3 0 88 22 187 50 445 121
894 245 1042 286 182 50 189 51 179 27 -3 -10 -16 -51 -28 -91 -20 -69 -21
-75 -4 -86 18 -14 13 -28 -8 -20 -16 7 -104 -91 -161 -178 -109 -166 -189
-403 -209 -618 -11 -119 -6 -329 10 -440 3 -19 7 -55 10 -80 3 -25 10 -61 15
-80 5 -19 12 -53 16 -75 10 -67 18 -70 44 -13 83 190 201 308 305 308 67 0 72
-7 73 -122 2 -119 12 -270 19 -280 2 -5 258 -8 569 -8 444 0 564 3 565 13 1 6
3 23 5 37 1 14 5 97 9 185 3 87 8 161 10 164 13 13 104 11 137 -3 44 -19 117
-89 154 -148 40 -64 94 -169 94 -184 0 -8 3 -14 8 -14 6 0 39 144 57 250 19
119 26 371 13 500 -30 286 -141 555 -303 732 -27 30 -55 53 -62 51 -6 -2 -14
1 -18 6 -3 6 -2 11 3 11 14 0 22 39 12 64 -17 43 -40 129 -36 133 2 2 24 -1
47 -7 24 -7 55 -14 68 -17 14 -2 28 -6 33 -9 4 -3 34 -12 65 -20 100 -26 235
-63 313 -85 120 -33 156 -43 524 -143 192 -53 351 -94 353 -92 2 2 -1 14 -6
27 -11 26 -96 255 -211 569 -39 107 -102 278 -140 380 -65 175 -203 548 -275
745 -34 91 -125 339 -230 625 -31 85 -60 164 -65 175 -5 11 -66 175 -135 365
-70 190 -149 406 -177 480 -76 205 -110 297 -188 510 -40 107 -82 222 -95 255
-12 33 -93 254 -180 490 -86 237 -161 439 -166 450 -9 22 -143 384 -167 453
-14 42 -32 56 -32 26z"/>
</g>
</svg>
